<?xml version="1.0" standalone="no"?>
<!DOCTYPE svg PUBLIC "-//W3C//DTD SVG 1.1//EN" "http://www.w3.org/Graphics/SVG/1.1/DTD/svg11.dtd" >
<svg xmlns="http://www.w3.org/2000/svg" xmlns:xlink="http://www.w3.org/1999/xlink" version="1.1">
<metadata></metadata>
<defs>
<font id="comic_runesregular" horiz-adv-x="456" >
<font-face units-per-em="2048" ascent="2038" descent="-10" />
<missing-glyph horiz-adv-x="500" />
<glyph horiz-adv-x="0" />
<glyph horiz-adv-x="682" />
<glyph />
<glyph />
<glyph />
<glyph unicode="&#x9;" />
<glyph unicode="&#xa;" />
<glyph unicode="&#xd;" />
<glyph unicode=" " />
<glyph unicode="!" horiz-adv-x="448" d="M223 66q0 31 22.5 53t53.5 22t52.5 -22t21.5 -53t-21.5 -51.5t-52.5 -20.5t-53.5 21t-22.5 51zM223 438v1118q0 31 22.5 52.5t53.5 21.5t52.5 -21.5t21.5 -52.5v-1118q0 -31 -21.5 -52t-52.5 -21t-53.5 21.5t-22.5 51.5z" />
<glyph unicode="&#x22;" />
<glyph unicode="#" />
<glyph unicode="$" />
<glyph unicode="%" />
<glyph unicode="&#x26;" />
<glyph unicode="'" />
<glyph unicode="(" />
<glyph unicode=")" />
<glyph unicode="*" />
<glyph unicode="+" />
<glyph unicode="," horiz-adv-x="493" d="M-1 -248.5q-2 25.5 13 47.5l252 314q17 22 42.5 24.5t45.5 -14.5q22 -17 24.5 -42.5t-14.5 -45.5l-251 -316q-18 -24 -50 -24q-20 0 -41 14q-19 17 -21 42.5z" />
<glyph unicode="-" />
<glyph unicode="." horiz-adv-x="489" d="M223 66q0 31 22.5 53t53.5 22t52.5 -22t21.5 -53t-21.5 -51.5t-52.5 -20.5t-53.5 21t-22.5 51z" />
<glyph unicode="/" />
<glyph unicode="0" horiz-adv-x="901" d="M41 811q0 29 18 53l340 408q28 31 64 31q40 0 65 -31l314 -398q18 -21 18 -51v-6q0 -34 -16 -55l-316 -410q-26 -33 -65 -33q-35 0 -64 29l-340 410q-18 24 -18 53zM229 811l232 -279l219 285l-219 275z" />
<glyph unicode="1" horiz-adv-x="901" d="M78 811q0 25 16 47l596 744q22 28 58 28q31 0 53 -21.5t22 -52.5v-1490q0 -29 -22 -50.5t-53 -21.5q-29 0 -51.5 21.5t-22.5 50.5v1277l-463 -579q-24 -27 -57 -27q-31 0 -53.5 21.5t-22.5 52.5z" />
<glyph unicode="2" horiz-adv-x="901" d="M78 66q0 16 10 36l571 1074l-208 260l-240 -299q-25 -29 -57 -29q-31 0 -53.5 22.5t-22.5 53.5q0 25 16 47l299 371q22 28 58 28q37 0 59 -28l297 -371q16 -22 16 -49q0 -18 -10 -35l-537 -1006h472q31 0 53 -22t22 -53q0 -29 -22 -50.5t-53 -21.5q-66 0 -187 -1.5 t-220 -1.5t-187 3q-32 2 -54 22t-22 50z" />
<glyph unicode="3" horiz-adv-x="901" d="M78 66q0 28 16 47l500 624h-440q-31 0 -53.5 21.5t-22.5 52.5q0 25 16 47l500 623h-440q-31 0 -53.5 22t-22.5 53q0 29 22.5 51.5t53.5 22.5h594q31 0 53 -21.5t22 -52.5q0 -28 -16 -47l-500 -624h441q31 0 53 -21.5t22 -52.5q0 -25 -16 -47l-596 -744q-20 -26 -57 -26 q-31 0 -53.5 21.5t-22.5 50.5z" />
<glyph unicode="4" horiz-adv-x="901" d="M78 811q0 25 16 47l596 744q22 28 58 28q31 0 53 -21.5t22 -52.5v-1490q0 -29 -22 -50.5t-53 -21.5q-29 0 -51.5 21.5t-22.5 50.5v671h-520q-31 0 -53.5 21.5t-22.5 52.5zM307 885h367v458z" />
<glyph unicode="5" horiz-adv-x="901" d="M78 438q0 31 22.5 53.5t51.5 22.5q34 0 59 -29l240 -299l223 279v643h-520q-31 0 -53.5 22.5t-22.5 53.5v372q0 30 21.5 51t52.5 23q88 3 188 3t221.5 -1.5t186.5 -1.5q30 0 52.5 -22t22.5 -52q0 -31 -22 -53t-53 -22h-521v-224h523q30 0 51.5 -21.5t21.5 -51.5v-746 q0 -25 -16 -47l-297 -371q-20 -26 -59 -26q-38 0 -58 26l-299 371q-16 22 -16 47z" />
<glyph unicode="6" horiz-adv-x="901" d="M78 811q0 17 6 29l299 743q7 21 26.5 34t41.5 13q31 0 53 -22t22 -52q0 -13 -23 -77t-61.5 -159t-71 -174.5t-69.5 -167t-39 -93.5h486q31 0 53 -21t22 -53q0 -17 -6 -29l-297 -743q-19 -45 -69 -45q-51 0 -70 45l-297 743q-6 12 -6 29zM262 737l189 -471l188 471h-377z " />
<glyph unicode="7" horiz-adv-x="901" d="M78 66q0 13 52 149t132 335.5t156 386.5t144.5 355.5t76.5 188.5h-485q-31 0 -53.5 22t-22.5 53q0 29 22.5 51.5t53.5 22.5q66 0 187 1t220 1t187 -2q31 -2 53 -23t22 -51q0 -15 -6 -30l-596 -1487q-16 -45 -67 -45q-31 0 -53.5 21.5t-22.5 50.5z" />
<glyph unicode="8" horiz-adv-x="901" d="M79 439q0 26 15 46l260 326l-260 326q-15 20 -15 46t15 48l299 371q22 28 58 28q35 0 57 -28l299 -371q15 -22 15 -48t-15 -46l-260 -326l260 -326q15 -20 15 -46t-15 -48l-299 -371q-20 -26 -57 -26q-38 0 -58 26l-299 371q-15 22 -15 48zM248 438l203 -252l202 252 l-202 254zM248 1184l203 -254l202 254l-202 252z" />
<glyph unicode="9" horiz-adv-x="901" d="M78 811q0 17 6 29l297 743q7 20 26.5 33.5t41.5 13.5q23 0 42.5 -12.5t28.5 -34.5l297 -743q6 -15 6 -29t-6 -29l-297 -743q-19 -45 -69 -45q-31 0 -52.5 21.5t-21.5 50.5q0 10 12.5 47t34 93.5t45.5 117t53 131.5t50 121.5t42.5 101.5t24.5 59h-485q-31 0 -53.5 21 t-22.5 53zM262 885h377l-188 471z" />
<glyph unicode=":" />
<glyph unicode=";" />
<glyph unicode="&#x3c;" />
<glyph unicode="=" />
<glyph unicode="&#x3e;" />
<glyph unicode="?" horiz-adv-x="794" d="M0 1184q0 25 16 47l299 371q22 28 58 28q37 0 59 -28l295 -371q18 -21 18 -47q0 -29 -18 -47l-281 -353v-346q0 -31 -21 -52t-52 -21t-53.5 21.5t-22.5 51.5v373q0 25 16 47l262 326l-202 252l-240 -299q-23 -29 -59 -29q-29 0 -51.5 22.5t-22.5 53.5zM299 66 q0 -29 21.5 -50.5t52.5 -21.5t53.5 21.5t22.5 50.5q0 31 -22.5 53t-53.5 22t-52.5 -22t-21.5 -53z" />
<glyph unicode="@" horiz-adv-x="808" d="M0 438q0 28 16 47l297 373q24 27 60 27q33 0 57 -27l166 -207v506l-223 279l-223 -279v-346q0 -31 -22.5 -52.5t-53.5 -21.5q-30 0 -52 22t-22 52v373q0 25 16 47l297 371q22 28 60 28q35 0 57 -28l299 -371q16 -22 16 -47v-746q0 -25 -16 -47l-297 -371q-20 -26 -59 -26 q-38 0 -58 26l-299 371q-16 22 -16 47zM170 438l203 -252l202 252l-202 254z" />
<glyph unicode="A" horiz-adv-x="882" d="M92 74v1491q0 22 13 41t34 26q20 9 42.5 5t37.5 -21l594 -594q23 -20 23 -51v-897q0 -31 -21.5 -52.5t-52.5 -21.5q-32 0 -54 21.5t-22 52.5v381l-444 444v-825q0 -31 -21.5 -52.5t-52.5 -21.5t-53.5 21.5t-22.5 52.5zM242 1110l444 -444v274l-444 444v-274z" />
<glyph unicode="B" horiz-adv-x="886" d="M94 442l2 369v754q0 31 21.5 52t52.5 21q24 0 39 -12l590 -383q35 -21 35 -61q0 -43 -35 -64l-490 -307l490 -305q35 -21 35 -64q0 -40 -35 -61l-590 -371q-12 -6 -39 -10q-30 -1 -52 21.5t-22 52.5q-3 0 -3 164q0 81 1 204zM244 207l377 235l-377 236v-471zM244 944 l379 238l-379 248v-486z" />
<glyph unicode="C" horiz-adv-x="872" d="M92 819q0 28 19 47l594 744q22 28 59 28q29 0 51.5 -22t22.5 -51q0 -27 -17 -47l-559 -699l559 -698q17 -20 17 -47q0 -29 -22.5 -51.5t-51.5 -22.5q-36 0 -59 29l-594 743q-19 19 -19 47z" />
<glyph unicode="D" horiz-adv-x="858" d="M92 68v1488q0 24 14 43.5t37 26.5q21 8 44 2t38 -26l596 -744q17 -20 17 -46t-17 -48l-596 -744q-20 -26 -57 -26q-9 0 -25 4q-23 6 -37 25.5t-14 44.5zM242 279l426 532l-426 532v-1064z" />
<glyph unicode="E" horiz-adv-x="880" d="M92 819q0 28 19 47l594 744q22 28 59 28q29 0 51.5 -22t22.5 -51q0 -27 -17 -47l-499 -625h442q30 0 52 -22t22 -52t-22 -52t-52 -22h-442l499 -624q17 -20 17 -47q0 -29 -22.5 -51.5t-51.5 -22.5q-36 0 -59 29l-594 743q-19 19 -19 47z" />
<glyph unicode="F" horiz-adv-x="854" d="M92 74v1491q0 30 22.5 51.5t53.5 21.5q32 0 51 -22l594 -594q23 -20 23 -51t-21.5 -53.5t-52.5 -22.5q-30 0 -53 23l-467 466v-274l571 -571q23 -23 23 -54t-21.5 -52t-52.5 -21q-33 0 -53 20l-467 467v-825q0 -31 -21.5 -52.5t-52.5 -21.5t-53.5 21.5t-22.5 52.5z" />
<glyph unicode="G" horiz-adv-x="905" d="M92 819q0 28 19 47l594 744q22 28 59 28q29 0 51.5 -22t22.5 -51q0 -27 -17 -47l-559 -699l426 -532v532q0 31 22.5 52.5t53.5 21.5q30 0 52 -22t22 -52v-745q0 -30 -22 -51t-52 -23q-36 0 -59 29l-594 743q-19 19 -19 47z" />
<glyph unicode="H" horiz-adv-x="917" d="M92 74v1491q0 30 22.5 51.5t53.5 21.5t52.5 -21t21.5 -52v-299h446v299q0 31 22 52t54 21q31 0 52.5 -21t21.5 -52v-1491q0 -31 -21.5 -52.5t-52.5 -21.5q-32 0 -54 21.5t-22 52.5v671h-446v-671q0 -31 -21.5 -52.5t-52.5 -21.5t-53.5 21.5t-22.5 52.5zM242 893h446v223 h-446v-223z" />
<glyph unicode="I" horiz-adv-x="886" d="M92 1192q0 23 17 47l299 371q22 28 59 28q29 0 51.5 -22t22.5 -51v-1278l164 207q25 28 59 28q31 0 52.5 -22.5t21.5 -53.5q0 -23 -17 -47l-297 -370q-23 -29 -59 -29q-32 2 -53 22t-21 52v1278l-166 -207q-23 -29 -57 -29q-31 0 -53.5 22.5t-22.5 53.5z" />
<glyph unicode="J" horiz-adv-x="917" d="M92 819q0 31 22.5 52.5t53.5 21.5q33 0 57 -27l463 -579v1278q0 30 22.5 51.5t53.5 21.5t52.5 -21t21.5 -52v-1491q0 -30 -22 -51t-52 -23q-36 0 -59 29l-596 743q-17 24 -17 47z" />
<glyph unicode="K" horiz-adv-x="872" d="M92 74v1491q0 30 22.5 51.5t53.5 21.5t52.5 -21t21.5 -52v-533l463 578q20 25 50.5 28.5t53.5 -16.5q25 -20 28.5 -49.5t-16.5 -54.5l-559 -699l559 -698q20 -25 16.5 -55t-28.5 -50q-19 -16 -45 -16q-36 0 -59 29l-463 577v-532q0 -31 -21.5 -52.5t-52.5 -21.5 t-53.5 21.5t-22.5 52.5z" />
<glyph unicode="L" horiz-adv-x="833" d="M92 74v1491q0 30 22.5 51.5t53.5 21.5t52.5 -21t21.5 -52v-1278l463 579q24 27 59 27q31 0 52.5 -21.5t21.5 -52.5q0 -23 -17 -47l-596 -743q-23 -29 -57 -29q-31 2 -53.5 23t-22.5 51z" />
<glyph unicode="M" horiz-adv-x="917" d="M92 74v1491q0 30 22.5 51.5t53.5 21.5q35 0 57 -28l240 -299l240 299q22 28 59 28q30 0 52 -21.5t22 -51.5v-1491q0 -31 -21.5 -52.5t-52.5 -21.5t-53.5 21.5t-22.5 52.5v719l-223 280l-223 -280v-719q0 -31 -21.5 -52.5t-52.5 -21.5t-53.5 21.5t-22.5 52.5zM242 1032 l129 160l-129 160v-320zM561 1192l127 -160v320z" />
<glyph unicode="N" horiz-adv-x="911" d="M92 74v1489q0 31 21.5 53t52.5 22q37 0 59 -28l459 -584v526q0 31 21.5 52.5t52.5 21.5t52 -21.5t21 -52.5v-1478q0 -32 -21 -52t-52 -22q-35 0 -58 29l-458 573v-528q0 -31 -22.5 -52.5t-53.5 -21.5q-30 0 -52 22t-22 52zM242 840l442 -555v501l-442 566v-512z" />
<glyph unicode="O" horiz-adv-x="886" d="M92 819q0 14 6 29l297 743q9 22 28 34.5t42 12.5t42 -12.5t28 -34.5l296 -743q7 -17 7 -29t-7 -26l-296 -746q-7 -21 -26.5 -34t-41.5 -13q-24 0 -43.5 13t-26.5 34l-299 744q-6 15 -6 28zM248 819l217 -545l217 545l-217 545z" />
<glyph unicode="P" horiz-adv-x="851" d="M92 74v1493q0 29 22.5 50t53.5 21q21 0 39 -12l592 -379q35 -25 35 -61q0 -43 -37 -66l-555 -348v-698q0 -31 -22.5 -52.5t-53.5 -21.5q-30 0 -52 22t-22 52zM242 948l379 238l-379 244v-482z" />
<glyph unicode="Q" horiz-adv-x="894" d="M92 819q0 14 6 29l299 743q7 21 26.5 34t41.5 13q24 0 43.5 -13t26.5 -34l296 -745q7 -14 7 -27q0 -11 -7 -28l-137 -345q2 -5 23 -54t38.5 -90.5t38 -93t32.5 -87t12 -47.5q0 -31 -21.5 -52.5t-52.5 -21.5q-24 0 -43.5 13t-26.5 34l-80 199l-79 -199q-9 -22 -28 -34.5 t-42 -12.5t-42 12.5t-28 34.5l-297 744q-6 15 -6 28zM248 819l217 -545l70 172q-2 4 -23 54t-38 91t-38 93t-33 87.5t-12 47.5q0 31 21.5 52.5t52.5 21.5q50 0 70 -45l79 -201l68 172l-217 545z" />
<glyph unicode="R" horiz-adv-x="868" d="M92 74v1493q0 29 22 50t52 21q23 0 41 -12l592 -379q35 -25 35 -61q0 -43 -37 -66l-521 -325l541 -674q17 -24 17 -47q0 -30 -22 -52t-52 -22q-37 0 -60 29l-458 575v-530q0 -31 -22.5 -52.5t-53.5 -21.5q-30 0 -52 22t-22 52zM242 948l379 238l-379 244v-482z" />
<glyph unicode="S" horiz-adv-x="866" d="M92 74q0 23 17 47l497 620h-434q-33 0 -56.5 20.5t-23.5 53.5q0 23 17 47l593 748q19 28 58 28q31 0 52.5 -21t21.5 -52q0 -23 -17 -47l-498 -629h441q31 0 52.5 -21.5t21.5 -52.5q0 -23 -17 -47l-592 -739q-23 -29 -59 -29q-30 0 -52 22t-22 52z" />
<glyph unicode="T" horiz-adv-x="860" d="M92 1192q0 23 17 47l299 371q22 28 57 28q37 0 59 -28l297 -371q17 -24 17 -47q0 -31 -21.5 -53.5t-52.5 -22.5q-34 0 -59 29l-164 207v-1278q0 -31 -21.5 -52.5t-52.5 -21.5t-53.5 21.5t-22.5 52.5v1278l-166 -207q-25 -29 -57 -29q-31 0 -53.5 22.5t-22.5 53.5z" />
<glyph unicode="U" horiz-adv-x="903" d="M92 74v1491q0 30 22.5 51.5t53.5 21.5t52.5 -21t21.5 -52v-1356l446 278v1078q0 30 22.5 51.5t53.5 21.5t52.5 -21t21.5 -52v-1119q0 -40 -37 -63l-594 -371q-12 -8 -39 -12q-30 -1 -53 22t-23 52z" />
<glyph unicode="V" horiz-adv-x="899" d="M92 1565q0 30 22.5 51.5t53.5 21.5q27 0 47.5 -16.5t24.5 -42.5l225 -1124l225 1124q4 26 25 42.5t49 16.5q31 0 52.5 -21t21.5 -52q0 -11 -2 -17l-297 -1487q-6 -26 -27 -43.5t-47 -17.5t-47 17.5t-27 43.5l-297 1487q0 3 -1 8.5t-1 8.5z" />
<glyph unicode="W" horiz-adv-x="917" d="M92 74v1491q0 29 22.5 51t53.5 22q29 0 51.5 -22t22.5 -51v-906l166 207q24 27 57 27q35 0 59 -27l164 -207v906q0 29 22.5 51t53.5 22q29 0 51.5 -22t22.5 -51v-1491q0 -31 -22 -51.5t-52 -22.5q-36 0 -59 29l-240 299l-240 -299q-23 -29 -57 -29q-32 2 -54 22.5 t-22 51.5zM242 287l166 207q24 28 57 28q34 0 59 -28l164 -207v133l-223 280l-223 -280v-133z" />
<glyph unicode="X" horiz-adv-x="884" d="M92 74q0 12 26.5 84t68 175t80.5 199t75.5 184t42.5 103q-6 14 -42.5 103t-75.5 184.5t-80.5 199t-68 175.5t-26.5 84q0 30 22.5 51.5t53.5 21.5q22 0 41.5 -13t26.5 -34l229 -571l229 571q7 21 26.5 34t43.5 13q31 0 52.5 -21t21.5 -52q0 -12 -26.5 -84t-68 -175.5 t-80.5 -199t-75.5 -184.5t-42.5 -103q6 -15 42.5 -103t75.5 -184t80.5 -199t68 -175t26.5 -84q0 -31 -21.5 -52.5t-52.5 -21.5q-24 0 -43.5 13t-26.5 34l-229 571l-229 -571q-7 -21 -26.5 -34t-41.5 -13q-31 0 -53.5 21.5t-22.5 52.5z" />
<glyph unicode="Y" horiz-adv-x="872" d="M98 1536q-12 29 0.5 57t40.5 39q29 12 58 0t39 -41l155 -385v359q0 31 21.5 52t52.5 21t53.5 -21.5t22.5 -51.5v-359l153 385q10 29 39 41t58 0q29 -10 40.5 -38.5t-0.5 -57.5l-290 -731v-731q0 -31 -22.5 -52.5t-53.5 -21.5t-52.5 21.5t-21.5 52.5v731z" />
<glyph unicode="Z" horiz-adv-x="868" d="M92 74q0 15 6 30l555 1385h-485q-31 0 -53.5 22.5t-22.5 53.5q0 30 22.5 51.5t53.5 21.5q65 0 186.5 1t221.5 1t188 -2q30 -2 52 -22.5t22 -50.5q0 -13 -7 -31l-555 -1384h488q31 0 52.5 -22.5t21.5 -53.5t-21.5 -52.5t-52.5 -21.5h-596q-34 3 -55 22t-21 52z" />
<glyph unicode="[" />
<glyph unicode="\" />
<glyph unicode="]" />
<glyph unicode="^" />
<glyph unicode="_" />
<glyph unicode="`" />
<glyph unicode="a" horiz-adv-x="882" d="M92 74v1491q0 22 13 41t34 26q20 9 42.5 5t37.5 -21l594 -594q23 -20 23 -51v-897q0 -31 -21.5 -52.5t-52.5 -21.5q-32 0 -54 21.5t-22 52.5v381l-444 444v-825q0 -31 -21.5 -52.5t-52.5 -21.5t-53.5 21.5t-22.5 52.5zM242 1110l444 -444v274l-444 444v-274z" />
<glyph unicode="b" horiz-adv-x="886" d="M94 442l2 369v754q0 31 21.5 52t52.5 21q24 0 39 -12l590 -383q35 -21 35 -61q0 -43 -35 -64l-490 -307l490 -305q35 -21 35 -64q0 -40 -35 -61l-590 -371q-12 -6 -39 -10q-30 -1 -52 21.5t-22 52.5q-3 0 -3 164q0 81 1 204zM244 207l377 235l-377 236v-471zM244 944 l379 238l-379 248v-486z" />
<glyph unicode="c" horiz-adv-x="872" d="M92 819q0 28 19 47l594 744q22 28 59 28q29 0 51.5 -22t22.5 -51q0 -27 -17 -47l-559 -699l559 -698q17 -20 17 -47q0 -29 -22.5 -51.5t-51.5 -22.5q-36 0 -59 29l-594 743q-19 19 -19 47z" />
<glyph unicode="d" horiz-adv-x="858" d="M92 68v1488q0 24 14 43.5t37 26.5q21 8 44 2t38 -26l596 -744q17 -20 17 -46t-17 -48l-596 -744q-20 -26 -57 -26q-9 0 -25 4q-23 6 -37 25.5t-14 44.5zM242 279l426 532l-426 532v-1064z" />
<glyph unicode="e" horiz-adv-x="880" d="M92 819q0 28 19 47l594 744q22 28 59 28q29 0 51.5 -22t22.5 -51q0 -27 -17 -47l-499 -625h442q30 0 52 -22t22 -52t-22 -52t-52 -22h-442l499 -624q17 -20 17 -47q0 -29 -22.5 -51.5t-51.5 -22.5q-36 0 -59 29l-594 743q-19 19 -19 47z" />
<glyph unicode="f" horiz-adv-x="854" d="M92 74v1491q0 30 22.5 51.5t53.5 21.5q32 0 51 -22l594 -594q23 -20 23 -51t-21.5 -53.5t-52.5 -22.5q-30 0 -53 23l-467 466v-274l571 -571q23 -23 23 -54t-21.5 -52t-52.5 -21q-33 0 -53 20l-467 467v-825q0 -31 -21.5 -52.5t-52.5 -21.5t-53.5 21.5t-22.5 52.5z" />
<glyph unicode="g" horiz-adv-x="905" d="M92 819q0 28 19 47l594 744q22 28 59 28q29 0 51.5 -22t22.5 -51q0 -27 -17 -47l-559 -699l426 -532v532q0 31 22.5 52.5t53.5 21.5q30 0 52 -22t22 -52v-745q0 -30 -22 -51t-52 -23q-36 0 -59 29l-594 743q-19 19 -19 47z" />
<glyph unicode="h" horiz-adv-x="917" d="M92 74v1491q0 30 22.5 51.5t53.5 21.5t52.5 -21t21.5 -52v-299h446v299q0 31 22 52t54 21q31 0 52.5 -21t21.5 -52v-1491q0 -31 -21.5 -52.5t-52.5 -21.5q-32 0 -54 21.5t-22 52.5v671h-446v-671q0 -31 -21.5 -52.5t-52.5 -21.5t-53.5 21.5t-22.5 52.5zM242 893h446v223 h-446v-223z" />
<glyph unicode="i" horiz-adv-x="886" d="M92 1192q0 23 17 47l299 371q22 28 59 28q29 0 51.5 -22t22.5 -51v-1278l164 207q25 28 59 28q31 0 52.5 -22.5t21.5 -53.5q0 -23 -17 -47l-297 -370q-23 -29 -59 -29q-32 2 -53 22t-21 52v1278l-166 -207q-23 -29 -57 -29q-31 0 -53.5 22.5t-22.5 53.5z" />
<glyph unicode="j" horiz-adv-x="917" d="M92 819q0 31 22.5 52.5t53.5 21.5q33 0 57 -27l463 -579v1278q0 30 22.5 51.5t53.5 21.5t52.5 -21t21.5 -52v-1491q0 -30 -22 -51t-52 -23q-36 0 -59 29l-596 743q-17 24 -17 47z" />
<glyph unicode="k" horiz-adv-x="872" d="M92 74v1491q0 30 22.5 51.5t53.5 21.5t52.5 -21t21.5 -52v-533l463 578q20 25 50.5 28.5t53.5 -16.5q25 -20 28.5 -49.5t-16.5 -54.5l-559 -699l559 -698q20 -25 16.5 -55t-28.5 -50q-19 -16 -45 -16q-36 0 -59 29l-463 577v-532q0 -31 -21.5 -52.5t-52.5 -21.5 t-53.5 21.5t-22.5 52.5z" />
<glyph unicode="l" horiz-adv-x="833" d="M92 74v1491q0 30 22.5 51.5t53.5 21.5t52.5 -21t21.5 -52v-1278l463 579q24 27 59 27q31 0 52.5 -21.5t21.5 -52.5q0 -23 -17 -47l-596 -743q-23 -29 -57 -29q-31 2 -53.5 23t-22.5 51z" />
<glyph unicode="m" horiz-adv-x="917" d="M92 74v1491q0 30 22.5 51.5t53.5 21.5q35 0 57 -28l240 -299l240 299q22 28 59 28q30 0 52 -21.5t22 -51.5v-1491q0 -31 -21.5 -52.5t-52.5 -21.5t-53.5 21.5t-22.5 52.5v719l-223 280l-223 -280v-719q0 -31 -21.5 -52.5t-52.5 -21.5t-53.5 21.5t-22.5 52.5zM242 1032 l129 160l-129 160v-320zM561 1192l127 -160v320z" />
<glyph unicode="n" horiz-adv-x="911" d="M92 74v1489q0 31 21.5 53t52.5 22q37 0 59 -28l459 -584v526q0 31 21.5 52.5t52.5 21.5t52 -21.5t21 -52.5v-1478q0 -32 -21 -52t-52 -22q-35 0 -58 29l-458 573v-528q0 -31 -22.5 -52.5t-53.5 -21.5q-30 0 -52 22t-22 52zM242 840l442 -555v501l-442 566v-512z" />
<glyph unicode="o" horiz-adv-x="886" d="M92 819q0 14 6 29l297 743q9 22 28 34.5t42 12.5t42 -12.5t28 -34.5l296 -743q7 -17 7 -29t-7 -26l-296 -746q-7 -21 -26.5 -34t-41.5 -13q-24 0 -43.5 13t-26.5 34l-299 744q-6 15 -6 28zM248 819l217 -545l217 545l-217 545z" />
<glyph unicode="p" horiz-adv-x="851" d="M92 74v1493q0 29 22.5 50t53.5 21q21 0 39 -12l592 -379q35 -25 35 -61q0 -43 -37 -66l-555 -348v-698q0 -31 -22.5 -52.5t-53.5 -21.5q-30 0 -52 22t-22 52zM242 948l379 238l-379 244v-482z" />
<glyph unicode="q" horiz-adv-x="894" d="M92 819q0 14 6 29l299 743q7 21 26.5 34t41.5 13q24 0 43.5 -13t26.5 -34l296 -745q7 -14 7 -27q0 -11 -7 -28l-137 -345q2 -5 23 -54t38.5 -90.5t38 -93t32.5 -87t12 -47.5q0 -31 -21.5 -52.5t-52.5 -21.5q-24 0 -43.5 13t-26.5 34l-80 199l-79 -199q-9 -22 -28 -34.5 t-42 -12.5t-42 12.5t-28 34.5l-297 744q-6 15 -6 28zM248 819l217 -545l70 172q-2 4 -23 54t-38 91t-38 93t-33 87.5t-12 47.5q0 31 21.5 52.5t52.5 21.5q50 0 70 -45l79 -201l68 172l-217 545z" />
<glyph unicode="r" horiz-adv-x="868" d="M92 74v1493q0 29 22 50t52 21q23 0 41 -12l592 -379q35 -25 35 -61q0 -43 -37 -66l-521 -325l541 -674q17 -24 17 -47q0 -30 -22 -52t-52 -22q-37 0 -60 29l-458 575v-530q0 -31 -22.5 -52.5t-53.5 -21.5q-30 0 -52 22t-22 52zM242 948l379 238l-379 244v-482z" />
<glyph unicode="s" horiz-adv-x="866" d="M92 74q0 23 17 47l497 620h-434q-33 0 -56.5 20.5t-23.5 53.5q0 23 17 47l593 748q19 28 58 28q31 0 52.5 -21t21.5 -52q0 -23 -17 -47l-498 -629h441q31 0 52.5 -21.5t21.5 -52.5q0 -23 -17 -47l-592 -739q-23 -29 -59 -29q-30 0 -52 22t-22 52z" />
<glyph unicode="t" horiz-adv-x="892" d="M92 1192q0 23 17 47l299 371q22 28 57 28q37 0 59 -28l297 -371q17 -24 17 -47q0 -31 -21.5 -53.5t-52.5 -22.5q-34 0 -59 29l-164 207v-1278q0 -31 -21.5 -52.5t-52.5 -21.5t-53.5 21.5t-22.5 52.5v1278l-166 -207q-25 -29 -57 -29q-31 0 -53.5 22.5t-22.5 53.5z" />
<glyph unicode="u" horiz-adv-x="903" d="M92 74v1491q0 30 22.5 51.5t53.5 21.5t52.5 -21t21.5 -52v-1356l446 278v1078q0 30 22.5 51.5t53.5 21.5t52.5 -21t21.5 -52v-1119q0 -40 -37 -63l-594 -371q-12 -8 -39 -12q-30 -1 -53 22t-23 52z" />
<glyph unicode="v" horiz-adv-x="899" d="M92 1565q0 30 22.5 51.5t53.5 21.5q27 0 47.5 -16.5t24.5 -42.5l225 -1124l225 1124q4 26 25 42.5t49 16.5q31 0 52.5 -21t21.5 -52q0 -11 -2 -17l-297 -1487q-6 -26 -27 -43.5t-47 -17.5t-47 17.5t-27 43.5l-297 1487q0 3 -1 8.5t-1 8.5z" />
<glyph unicode="w" horiz-adv-x="917" d="M92 74v1491q0 29 22.5 51t53.5 22q29 0 51.5 -22t22.5 -51v-906l166 207q24 27 57 27q35 0 59 -27l164 -207v906q0 29 22.5 51t53.5 22q29 0 51.5 -22t22.5 -51v-1491q0 -31 -22 -51.5t-52 -22.5q-36 0 -59 29l-240 299l-240 -299q-23 -29 -57 -29q-32 2 -54 22.5 t-22 51.5zM242 287l166 207q24 28 57 28q34 0 59 -28l164 -207v133l-223 280l-223 -280v-133z" />
<glyph unicode="x" horiz-adv-x="884" d="M92 74q0 12 26.5 84t68 175t80.5 199t75.5 184t42.5 103q-6 14 -42.5 103t-75.5 184.5t-80.5 199t-68 175.5t-26.5 84q0 30 22.5 51.5t53.5 21.5q22 0 41.5 -13t26.5 -34l229 -571l229 571q7 21 26.5 34t43.5 13q31 0 52.5 -21t21.5 -52q0 -12 -26.5 -84t-68 -175.5 t-80.5 -199t-75.5 -184.5t-42.5 -103q6 -15 42.5 -103t75.5 -184t80.5 -199t68 -175t26.5 -84q0 -31 -21.5 -52.5t-52.5 -21.5q-24 0 -43.5 13t-26.5 34l-229 571l-229 -571q-7 -21 -26.5 -34t-41.5 -13q-31 0 -53.5 21.5t-22.5 52.5z" />
<glyph unicode="y" horiz-adv-x="872" d="M98 1536q-12 29 0.5 57t40.5 39q29 12 58 0t39 -41l155 -385v359q0 31 21.5 52t52.5 21t53.5 -21.5t22.5 -51.5v-359l153 385q10 29 39 41t58 0q29 -10 40.5 -38.5t-0.5 -57.5l-290 -731v-731q0 -31 -22.5 -52.5t-53.5 -21.5t-52.5 21.5t-21.5 52.5v731z" />
<glyph unicode="z" horiz-adv-x="868" d="M92 74q0 15 6 30l555 1385h-485q-31 0 -53.5 22.5t-22.5 53.5q0 30 22.5 51.5t53.5 21.5q65 0 186.5 1t221.5 1t188 -2q30 -2 52 -22.5t22 -50.5q0 -13 -7 -31l-555 -1384h488q31 0 52.5 -22.5t21.5 -53.5t-21.5 -52.5t-52.5 -21.5h-596q-34 3 -55 22t-21 52z" />
<glyph unicode="{" />
<glyph unicode="|" />
<glyph unicode="}" />
<glyph unicode="~" />
<glyph unicode="&#xa0;" />
<glyph unicode="&#xa1;" />
<glyph unicode="&#xa2;" />
<glyph unicode="&#xa3;" />
<glyph unicode="&#xa4;" />
<glyph unicode="&#xa5;" />
<glyph unicode="&#xa6;" />
<glyph unicode="&#xa7;" />
<glyph unicode="&#xa8;" />
<glyph unicode="&#xa9;" />
<glyph unicode="&#xaa;" />
<glyph unicode="&#xab;" />
<glyph unicode="&#xac;" />
<glyph unicode="&#xad;" />
<glyph unicode="&#xae;" />
<glyph unicode="&#xaf;" />
<glyph unicode="&#xb0;" />
<glyph unicode="&#xb1;" />
<glyph unicode="&#xb2;" />
<glyph unicode="&#xb3;" />
<glyph unicode="&#xb4;" />
<glyph unicode="&#xb5;" />
<glyph unicode="&#xb6;" />
<glyph unicode="&#xb7;" />
<glyph unicode="&#xb8;" />
<glyph unicode="&#xb9;" />
<glyph unicode="&#xba;" />
<glyph unicode="&#xbb;" />
<glyph unicode="&#xbc;" />
<glyph unicode="&#xbd;" />
<glyph unicode="&#xbe;" />
<glyph unicode="&#xbf;" />
<glyph unicode="&#xc0;" />
<glyph unicode="&#xc1;" />
<glyph unicode="&#xc2;" />
<glyph unicode="&#xc3;" />
<glyph unicode="&#xc4;" />
<glyph unicode="&#xc5;" />
<glyph unicode="&#xc6;" />
<glyph unicode="&#xc7;" />
<glyph unicode="&#xc8;" />
<glyph unicode="&#xc9;" />
<glyph unicode="&#xca;" />
<glyph unicode="&#xcb;" />
<glyph unicode="&#xcc;" />
<glyph unicode="&#xcd;" />
<glyph unicode="&#xce;" />
<glyph unicode="&#xcf;" />
<glyph unicode="&#xd0;" />
<glyph unicode="&#xd1;" />
<glyph unicode="&#xd2;" />
<glyph unicode="&#xd3;" />
<glyph unicode="&#xd4;" />
<glyph unicode="&#xd5;" />
<glyph unicode="&#xd6;" />
<glyph unicode="&#xd7;" />
<glyph unicode="&#xd9;" />
<glyph unicode="&#xda;" />
<glyph unicode="&#xdb;" />
<glyph unicode="&#xdc;" />
<glyph unicode="&#xdd;" />
<glyph unicode="&#xde;" />
<glyph unicode="&#xdf;" />
<glyph unicode="&#xe0;" />
<glyph unicode="&#xe1;" />
<glyph unicode="&#xe2;" />
<glyph unicode="&#xe3;" />
<glyph unicode="&#xe4;" />
<glyph unicode="&#xe5;" />
<glyph unicode="&#xe9;" />
<glyph unicode="&#xeb;" />
<glyph unicode="&#xec;" />
<glyph unicode="&#xed;" />
<glyph unicode="&#xee;" />
<glyph unicode="&#xef;" />
<glyph unicode="&#xf0;" />
<glyph unicode="&#xf1;" />
<glyph unicode="&#xf2;" />
<glyph unicode="&#xf3;" />
<glyph unicode="&#xf4;" />
<glyph unicode="&#xf5;" />
<glyph unicode="&#xf6;" />
<glyph unicode="&#xf7;" />
<glyph unicode="&#xf8;" />
<glyph unicode="&#xf9;" />
<glyph unicode="&#xfa;" />
<glyph unicode="&#xfb;" />
<glyph unicode="&#xfc;" />
<glyph unicode="&#xfd;" />
<glyph unicode="&#xfe;" />
<glyph unicode="&#xff;" />
<glyph unicode="&#x178;" />
<glyph unicode="&#x2018;" />
<glyph unicode="&#x2019;" />
<glyph unicode="&#x201c;" />
<glyph unicode="&#x201d;" />
<glyph unicode="&#x25fc;" horiz-adv-x="1638" d="M0 0v1638h1638v-1638h-1638z" />
</font>
</defs>
</svg>
